<?xml version="1.0" encoding="utf-8"?>
<!-- Generator: Adobe Illustrator 22.1.0, SVG Export Plug-In . SVG Version: 6.00 Build 0)  -->
<!-- <svg version="1.1" id="Layer_1" xmlns="http://www.w3.org/2000/svg" xmlns:xlink="http://www.w3.org/1999/xlink" x="0px" y="0px"
	 viewBox="0 0 41.3 48.1" style="enable-background:new 0 0 41.3 48.1;" xml:space="preserve">
<style type="text/css">
	.st0{fill:#FFFFFF;}
</style>
<path class="st0" d="M41.3,32.6c0,1.5-0.4,3.1-1.1,4.8c-0.7,1.7-1.9,3.4-3.4,5.1c-1.6,1.7-3.6,3-6,4s-5.3,1.6-8.5,1.6
	c-2.4,0-4.7-0.2-6.7-0.7s-3.8-1.2-5.5-2.2c-1.6-1-3.1-2.3-4.5-3.9c-1.2-1.5-2.3-3.1-3.1-4.9S1,32.7,0.6,30.6c-0.4-2-0.6-4.2-0.6-6.5
	c0-3.7,0.5-7.1,1.6-10c1.1-3,2.6-5.5,4.7-7.6c2-2.1,4.4-3.7,7.1-4.8C16.1,0.5,19,0,22,0c3.8,0,7.1,0.7,10,2.2s5.2,3.4,6.7,5.6
	c1.6,2.2,2.3,4.3,2.3,6.3c0,1.1-0.4,2-1.1,2.9c-0.8,0.8-1.7,1.2-2.8,1.2c-1.2,0-2.1-0.3-2.7-0.9c-0.6-0.6-1.3-1.6-2-2.9
	c-1.2-2.3-2.7-4-4.3-5.2c-1.7-1.1-3.7-1.7-6.1-1.7c-3.9,0-6.9,1.5-9.2,4.4S9.4,19,9.4,24.4c0,3.6,0.5,6.6,1.5,9s2.4,4.2,4.3,5.4
	c1.9,1.2,4,1.8,6.5,1.8c2.7,0,5-0.7,6.9-2s3.3-3.3,4.2-5.9c0.4-1.2,0.9-2.2,1.5-3s1.5-1.2,2.9-1.2c1.1,0,2.1,0.4,2.9,1.2
	C40.9,30.4,41.3,31.4,41.3,32.6z"/>
</svg> -->

<svg width="80.52" height="76.8" viewBox="0 0 80.52 76.8" xmlns="http://www.w3.org/2000/svg"><g id="svgGroup" stroke-linecap="round" fill-rule="evenodd" font-size="9pt" stroke="#0088ffce" stroke-width="0.25mm" fill="#c2c2c2" style="stroke:#0088ffce;stroke-width:0.25mm;fill:#c2c2c2"><path d="M 12.6 62.4 L 33.6 12.72 A 12.927 12.927 0 0 0 33.996 11.648 Q 34.51 10.021 34.278 8.931 A 2.61 2.61 0 0 0 34.08 8.34 A 4.2 4.2 0 0 0 31.987 6.311 A 5.501 5.501 0 0 0 31.68 6.18 A 17.926 17.926 0 0 0 29.439 5.472 A 22.097 22.097 0 0 0 27.96 5.16 A 30.091 30.091 0 0 1 27.182 4.995 Q 26.106 4.75 25.632 4.534 A 2.138 2.138 0 0 1 25.56 4.5 A 0.74 0.74 0 0 1 25.253 4.184 Q 24.988 3.709 24.963 2.634 A 9.923 9.923 0 0 1 24.96 2.4 Q 24.96 0.36 26.4 0.18 A 21.591 21.591 0 0 1 27.752 0.057 Q 28.448 0.014 29.23 0.004 A 38.837 38.837 0 0 1 29.76 0 Q 33.623 0 36.598 0.592 A 22.052 22.052 0 0 1 38.16 0.96 Q 41.64 1.92 44.16 4.62 A 16.73 16.73 0 0 1 45.925 6.909 Q 46.691 8.085 47.419 9.538 A 41.379 41.379 0 0 1 48.84 12.72 L 69 62.4 Q 69.84 64.44 70.8 66.6 A 10.492 10.492 0 0 0 72.173 68.89 A 9.021 9.021 0 0 0 73.38 70.14 A 6.135 6.135 0 0 0 76.033 71.442 A 8.437 8.437 0 0 0 77.52 71.64 A 11.916 11.916 0 0 1 78.292 71.664 Q 79.057 71.713 79.584 71.869 A 3.501 3.501 0 0 1 79.62 71.88 A 0.837 0.837 0 0 1 80.065 72.238 Q 80.405 72.745 80.502 73.913 A 10.069 10.069 0 0 1 80.52 74.16 Q 80.52 75.12 79.98 75.96 A 1.738 1.738 0 0 1 78.723 76.774 A 2.448 2.448 0 0 1 78.36 76.8 A 213.681 213.681 0 0 0 75.615 76.645 Q 74.528 76.592 73.534 76.555 A 120.82 120.82 0 0 0 71.64 76.5 A 263.716 263.716 0 0 0 68.681 76.456 Q 67.12 76.441 65.391 76.44 A 427.24 427.24 0 0 0 65.16 76.44 A 310.928 310.928 0 0 0 54.373 76.634 A 359.717 359.717 0 0 0 50.28 76.8 Q 49.08 76.8 48.6 75.96 Q 48.12 75.12 48.12 74.16 A 7.737 7.737 0 0 1 48.197 73.412 Q 48.401 72.12 49.033 71.895 A 0.785 0.785 0 0 1 49.08 71.88 A 5.682 5.682 0 0 1 49.853 71.72 Q 50.247 71.665 50.698 71.648 A 11.055 11.055 0 0 1 51.12 71.64 A 24.524 24.524 0 0 0 53.137 71.564 Q 57.101 71.235 57.54 69.48 A 4.294 4.294 0 0 0 57.646 68.837 Q 57.85 66.647 56.4 62.4 L 52.32 52.44 L 22.68 52.44 Q 21.022 56.639 20.23 58.702 A 208.872 208.872 0 0 0 20.1 59.04 A 161.676 161.676 0 0 0 19.787 59.864 Q 19.281 61.21 19.14 61.679 A 15.316 15.316 0 0 0 19.14 61.68 A 7.801 7.801 0 0 1 19.075 61.888 Q 18.969 62.207 18.887 62.338 A 0.352 0.352 0 0 1 18.84 62.4 A 53.585 53.585 0 0 0 18.259 64.309 Q 17.737 66.155 17.555 67.435 A 9.361 9.361 0 0 0 17.46 68.46 A 3.806 3.806 0 0 0 17.458 68.575 Q 17.458 70.102 18.722 70.773 A 3.664 3.664 0 0 0 19.38 71.04 A 9.757 9.757 0 0 0 20.622 71.317 Q 22.603 71.64 26.04 71.64 A 11.916 11.916 0 0 1 26.812 71.664 Q 27.577 71.713 28.104 71.869 A 3.501 3.501 0 0 1 28.14 71.88 A 0.837 0.837 0 0 1 28.585 72.238 Q 28.925 72.745 29.022 73.913 A 10.069 10.069 0 0 1 29.04 74.16 Q 29.04 75.12 28.5 75.96 A 1.738 1.738 0 0 1 27.243 76.774 A 2.448 2.448 0 0 1 26.88 76.8 A 218.535 218.535 0 0 0 24.143 76.645 Q 23.063 76.592 22.082 76.555 A 118.563 118.563 0 0 0 20.22 76.5 A 250.562 250.562 0 0 0 17.405 76.457 Q 15.713 76.44 13.8 76.44 A 169.456 169.456 0 0 0 12.649 76.444 Q 11.021 76.455 9.819 76.499 A 60.169 60.169 0 0 0 9.78 76.5 Q 8.16 76.56 6.48 76.62 A 270.231 270.231 0 0 0 5.58 76.654 Q 4.14 76.71 2.16 76.8 Q 0.96 76.8 0.48 75.96 Q 0 75.12 0 74.16 A 7.737 7.737 0 0 1 0.077 73.412 Q 0.281 72.12 0.913 71.895 A 0.785 0.785 0 0 1 0.96 71.88 A 5.682 5.682 0 0 1 1.733 71.72 Q 2.127 71.665 2.578 71.648 A 11.055 11.055 0 0 1 3 71.64 A 12.74 12.74 0 0 0 4.83 71.518 Q 5.761 71.382 6.515 71.097 A 5.277 5.277 0 0 0 7.92 70.32 A 9.094 9.094 0 0 0 10.106 67.806 A 11.167 11.167 0 0 0 10.62 66.84 Q 11.64 64.68 12.6 62.4 Z M 37.68 16.44 L 24.96 47.28 L 50.16 47.28 L 38.04 16.44 L 37.68 16.44 Z" vector-effect="non-scaling-stroke"/></g></svg>